<svg width="24" height="24" viewBox="0 0 24 24" fill="none" xmlns="http://www.w3.org/2000/svg">
<path fill-rule="evenodd" clip-rule="evenodd" d="M6.46516 2.47118C5.90151 2.72725 5.18033 3.3019 4.86249 3.74801C4.52315 4.22464 4.23658 5.0621 4.16781 5.77779L4.05078 6.99611H11.9913H19.9319L19.8149 5.77779C19.7491 5.09161 19.4613 4.22689 19.1562 3.79877C18.8584 3.38042 18.1297 2.80327 17.537 2.51644C16.566 2.04632 16.0166 1.99531 11.9748 2.00031C8.14284 2.00506 7.34089 2.07358 6.46516 2.47118ZM4.1143 8.09464C4.1143 8.28619 3.94551 8.50775 3.7392 8.58702C3.45138 8.6973 3.3641 9.17217 3.3641 10.6263C3.3641 12.38 3.31309 12.5653 2.68218 13.1082C2.15279 13.5633 2 13.9167 2 14.6861C2 15.4641 2.22781 15.9789 3.05727 17.0775C3.63868 17.8477 4.1148 18.7357 4.1153 19.051C4.1158 19.3663 4.34336 19.997 4.62093 20.4521C4.8985 20.9075 5.51316 21.4419 5.98728 21.6399C6.46116 21.838 7.24111 22 7.72048 22C8.19986 22 8.87328 21.8717 9.21737 21.7149C9.76077 21.4674 9.85254 21.2458 9.9168 20.027C9.98857 18.6679 10.0123 18.6256 10.6785 18.6711C11.0569 18.6971 11.3662 18.6126 11.3662 18.4836C11.3662 18.3546 11.4505 18.2488 11.5537 18.2485C11.657 18.248 11.7043 19.092 11.659 20.124C11.5882 21.7374 11.6348 22 11.9913 22C12.3479 22 12.3944 21.7374 12.3237 20.124C12.2784 19.092 12.3257 18.248 12.429 18.2485C12.5322 18.2488 12.6165 18.3546 12.6165 18.4836C12.6165 18.6126 12.9258 18.6971 13.3042 18.6711C13.9704 18.6256 13.9941 18.6679 14.0659 20.027C14.1301 21.2458 14.2219 21.4674 14.7653 21.7149C15.1094 21.8717 15.7828 22 16.2622 22C16.7416 22 17.5215 21.838 17.9954 21.6399C18.4695 21.4419 19.0842 20.9075 19.3618 20.4521C19.6393 19.997 19.8669 19.3721 19.8674 19.064C19.8679 18.7557 20.2742 17.9717 20.7704 17.3215C21.2665 16.6716 21.7776 15.8634 21.9062 15.5256C22.0345 15.1877 22.07 14.5946 21.9852 14.2075C21.9002 13.8206 21.5578 13.2895 21.2245 13.0272C20.6778 12.5971 20.6186 12.364 20.6186 10.6408C20.6186 9.17367 20.5316 8.69755 20.2435 8.58702C20.0372 8.50775 19.8684 8.28619 19.8684 8.09464C19.8684 7.80431 18.5575 7.7463 11.9913 7.7463C5.42514 7.7463 4.1143 7.80431 4.1143 8.09464ZM10.3469 9.89836C10.0136 10.257 9.17811 10.8749 8.49043 11.2715C7.80276 11.6681 7.09782 11.9937 6.92378 11.9952C6.74998 11.9964 6.38464 11.6318 6.11207 11.1847C5.8395 10.7376 5.61619 10.1187 5.61569 9.80934C5.61469 9.26094 5.68221 9.24669 8.28388 9.24669H10.9533L10.3469 9.89836ZM18.368 9.62979C18.368 9.84059 18.2042 10.4047 18.0042 10.8836C17.8041 11.3625 17.472 11.8191 17.266 11.8981C17.0602 11.9771 16.3317 11.7371 15.6475 11.3645C14.9631 10.9921 14.0929 10.3632 13.7133 9.96713L13.0231 9.24669H15.6956C17.9291 9.24669 18.368 9.30971 18.368 9.62979ZM12.6165 13.7479C12.6165 14.1147 12.4497 14.248 11.9913 14.248C11.533 14.248 11.3662 14.1147 11.3662 13.7479C11.3662 13.381 11.533 13.2477 11.9913 13.2477C12.4497 13.2477 12.6165 13.381 12.6165 13.7479ZM10.616 14.1312C10.616 14.326 10.2784 14.6598 9.86579 14.8731C9.15911 15.2385 9.1156 15.2335 9.1156 14.7851C9.1156 14.5233 9.36891 14.139 9.67824 13.9312C9.98757 13.7236 10.3252 13.6038 10.4284 13.6653C10.5317 13.7271 10.616 13.9367 10.616 14.1312ZM14.2507 13.9016C14.5898 14.1237 14.8671 14.5206 14.8671 14.7834C14.8671 15.2337 14.8241 15.2387 14.1169 14.8731C13.6678 14.6408 13.3667 14.2872 13.3667 13.9914C13.3667 13.7199 13.427 13.4978 13.5005 13.4978C13.5743 13.4978 13.9118 13.6796 14.2507 13.9016ZM8.3654 15.2482C8.3654 15.3858 8.05582 15.4966 7.67772 15.4946C7.14183 15.4916 7.07282 15.437 7.36514 15.2482C7.57145 15.115 7.88103 15.0042 8.05282 15.0019C8.22487 14.9999 8.3654 15.1107 8.3654 15.2482ZM16.6175 15.2482C16.9099 15.437 16.8409 15.4916 16.305 15.4946C15.9266 15.4966 15.6173 15.3858 15.6173 15.2482C15.6173 15.1107 15.7581 14.9999 15.9299 15.0019C16.1019 15.0042 16.4112 15.115 16.6175 15.2482ZM8.10533 18.8622C8.27113 19.062 8.36915 19.4156 8.32364 19.6481C8.27788 19.8807 8.04332 20.195 7.80276 20.3466C7.48392 20.5471 7.24636 20.5471 6.92753 20.3466C6.68697 20.195 6.45241 19.8807 6.40664 19.6481C6.36113 19.4156 6.45916 19.062 6.62495 18.8622C6.79074 18.6624 7.12383 18.4991 7.36514 18.4991C7.60646 18.4991 7.93954 18.6624 8.10533 18.8622ZM17.3577 18.8622C17.5235 19.062 17.6216 19.4156 17.576 19.6481C17.5303 19.8807 17.296 20.195 17.0552 20.3466C16.7363 20.5471 16.4988 20.5471 16.1799 20.3466C15.9394 20.195 15.7048 19.8807 15.659 19.6481C15.6135 19.4156 15.7116 19.062 15.8774 18.8622C16.0431 18.6624 16.3762 18.4991 16.6175 18.4991C16.8589 18.4991 17.1919 18.6624 17.3577 18.8622ZM10.2174 19.0957C10.1441 19.2863 10.1196 19.9245 10.1626 20.5141C10.2056 21.1038 10.3817 21.6324 10.5535 21.6889C10.7805 21.7634 10.8661 21.3756 10.8661 20.2703C10.8661 19.3921 10.757 18.7492 10.6082 18.7492C10.4662 18.7492 10.2904 18.9052 10.2174 19.0957ZM13.0571 19.0617C12.9949 19.2338 12.9716 19.8599 13.0051 20.4536C13.0389 21.0473 13.1264 21.5929 13.1999 21.6664C13.2734 21.7399 13.4535 21.7259 13.6 21.6352C13.7468 21.5446 13.8668 20.8582 13.8668 20.1098C13.8668 19.1135 13.7736 18.7492 13.5185 18.7492C13.3269 18.7492 13.1194 18.8899 13.0571 19.0617Z" fill="#FFE81F"/>
</svg>
