<svg width="113" height="50" viewBox="0 0 113 50" fill="#FFE81F" xmlns="http://www.w3.org/2000/svg">
<path fill-rule="evenodd" clip-rule="evenodd" d="M20.5829 0.70662C20.1815 0.811827 19.5403 1.02933 19.1581 1.18992C18.7759 1.35052 18.2064 1.65227 17.8927 1.86046C17.579 2.06874 17.071 2.51063 16.7638 2.84235C16.4566 3.17418 16.025 3.75206 15.8047 4.12661C15.5843 4.50126 15.2986 5.14942 15.1698 5.56711C14.9869 6.16007 14.9362 6.55964 14.9382 7.38975C14.9399 8.0614 15.0047 8.69537 15.1141 9.11114C15.2094 9.47314 15.5119 10.225 15.7862 10.7819C16.0742 11.3667 16.5129 12.0552 16.8244 12.4116C17.121 12.7512 17.8342 13.5397 18.4094 14.1639C19.2686 15.0964 19.4335 15.325 19.3336 15.4452C19.2292 15.571 17.893 15.5917 9.85822 15.5917H0.504205V19.7465V23.9012L12.3261 23.8706C23.1912 23.8426 24.1972 23.8259 24.7555 23.6643C25.0897 23.5676 25.7869 23.2807 26.305 23.0265C27.0493 22.6613 27.4122 22.4011 28.0353 21.7855C28.677 21.1515 28.9115 20.8277 29.2956 20.0458C29.5552 19.5174 29.8453 18.7889 29.9405 18.4269C30.0575 17.9815 30.1119 17.392 30.1085 16.6042C30.1055 15.8865 30.0399 15.1783 29.9376 14.7583C29.8464 14.3835 29.6413 13.7912 29.4821 13.4419C29.3228 13.0928 28.9409 12.4738 28.6333 12.0666C28.3258 11.6592 27.4527 10.6686 26.6933 9.86511C25.9337 9.06162 25.3124 8.3355 25.3124 8.25136C25.3124 8.11699 25.9667 8.09856 30.7291 8.09856H36.1458L36.1717 15.9714L36.1977 23.8442L40.3746 23.8706L44.5514 23.897V15.9978V8.09856H49.5637H54.576V4.30138V0.504205L37.9444 0.509774C21.9732 0.515141 21.2838 0.522938 20.5829 0.70662ZM58.2871 0.580756C58.2611 0.622981 56.8654 5.21372 55.1857 10.7825C53.5058 16.3514 51.9475 21.5115 51.7228 22.2496C51.4981 22.9875 51.3406 23.6602 51.3728 23.7442C51.424 23.8777 51.9658 23.8937 55.6507 23.8706C59.2781 23.8479 59.8817 23.8229 59.9532 23.6923C59.9989 23.6088 60.2544 22.8569 60.5211 22.0215L61.0059 20.5027H64.9512H68.8965L69.4066 22.0761C69.687 22.9416 69.9534 23.7049 69.9985 23.7722C70.0604 23.8647 71.0788 23.8948 74.1551 23.8948C77.0317 23.8948 78.2633 23.8614 78.3435 23.7812C78.406 23.7187 78.44 23.6162 78.4191 23.5534C78.3983 23.4906 76.9865 18.9281 75.2817 13.4146C73.5771 7.9011 71.9777 2.74079 71.7276 1.94713L71.2729 0.504205H64.8037C61.2457 0.504205 58.3132 0.538633 58.2871 0.580756ZM79.8905 12.0393C79.8905 18.3836 79.9181 23.6465 79.952 23.7346C80.0067 23.8774 80.5119 23.8948 84.6098 23.8948H89.2062V20.6039C89.2062 18.7939 89.2316 17.313 89.2624 17.313C89.2934 17.313 90.5123 18.5163 91.9711 19.987C94.5471 22.5839 94.6484 22.6726 95.4842 23.0654C95.9576 23.2878 96.6411 23.5519 97.0031 23.6524C97.6039 23.819 98.3081 23.838 105.078 23.8697L112.496 23.9045V19.7533V15.602L106.496 15.5715C101.058 15.5439 100.467 15.5248 100.18 15.3676C100.005 15.2722 99.8365 15.1253 99.8042 15.0411C99.7626 14.9329 100.009 14.7081 100.646 14.2716C101.141 13.9323 101.857 13.3271 102.236 12.9265C102.616 12.526 103.076 11.9166 103.258 11.5724C103.441 11.2283 103.685 10.5907 103.802 10.1555C103.96 9.56771 104.016 9.0518 104.019 8.14919C104.023 7.32798 103.969 6.72074 103.855 6.27591C103.761 5.91392 103.503 5.24663 103.281 4.79299C103.006 4.23111 102.649 3.72381 102.16 3.20121C101.766 2.77927 101.133 2.22711 100.752 1.97427C100.372 1.72133 99.7942 1.39598 99.4685 1.25129C99.1429 1.10659 98.4491 0.879265 97.9268 0.746212C96.9772 0.504205 96.9772 0.504205 88.4338 0.504205H79.8905V12.0393ZM94.9571 7.31877C95.1406 7.41891 95.3796 7.64674 95.4883 7.82506C95.6071 8.01978 95.686 8.33115 95.686 8.60485C95.686 8.87855 95.6071 9.18992 95.4883 9.38464C95.3796 9.56295 95.1542 9.77944 94.9875 9.86561C94.736 9.99563 94.2249 10.0225 91.9959 10.0225H89.3075V8.62176C89.3075 7.85129 89.3406 7.18784 89.381 7.14744C89.4215 7.10694 90.6176 7.088 92.039 7.10522C94.2979 7.13266 94.6656 7.15959 94.9571 7.31877ZM65.1068 7.94748C65.1068 7.97573 65.5158 9.32611 66.0157 10.9482C66.5156 12.5703 66.9002 13.9369 66.8704 13.9851C66.8407 14.0334 65.9988 14.0728 64.9996 14.0728C63.2226 14.0728 63.1829 14.0681 63.1829 13.8605C63.1829 13.7438 63.58 12.354 64.0651 10.7722C64.5503 9.19032 64.9832 7.89604 65.027 7.89604C65.071 7.89604 65.1068 7.91923 65.1068 7.94748ZM0.544404 25.6576C0.514229 25.7361 2.0971 30.9995 4.0617 37.354L7.63378 48.9079L11.5808 48.8813L15.5279 48.8549L16.8572 44.5788C17.5884 42.2269 18.215 40.2741 18.25 40.2393C18.2848 40.2044 18.4079 40.4884 18.5236 40.8701C18.6392 41.252 19.2282 43.2047 19.8324 45.2096L20.9311 48.8549L24.8958 48.8814L28.8606 48.9079L28.9573 48.6534C29.0106 48.5134 30.6076 43.2896 32.5063 37.0449C34.4933 30.5097 35.9206 25.6531 35.8694 25.6018C35.8201 25.5525 33.8427 25.5246 31.4375 25.5391L27.0947 25.5656L26.183 28.6286C25.6816 30.3133 25.2464 31.6911 25.2159 31.6904C25.1854 31.6896 24.7781 30.4479 24.3106 28.9311C23.8431 27.4141 23.4011 26.0251 23.3285 25.844L23.1963 25.5149H18.3893H13.5822L13.4776 25.844C13.42 26.0251 13.0951 27.1756 12.7556 28.4008C12.4161 29.626 12.067 30.8751 11.9797 31.1767C11.8728 31.5462 11.7955 31.6782 11.7425 31.5817C11.6994 31.5029 11.3832 30.4816 11.0399 29.3121C10.6966 28.1426 10.3017 26.8098 10.1624 26.3503L9.90895 25.5149H5.25402C1.34343 25.5149 0.590375 25.5377 0.544404 25.6576ZM39.9242 25.6408C39.8709 25.7108 39.7332 26.087 39.6182 26.4769C39.503 26.8667 37.9427 32.033 36.1507 37.9575C34.2705 44.1736 32.9303 48.767 32.9818 48.8186C33.0313 48.8681 34.9589 48.896 37.3115 48.8813L41.5521 48.8549L42.0373 47.2924C42.3041 46.433 42.5603 45.692 42.6066 45.6457C42.6529 45.5995 44.4422 45.5735 46.5829 45.5881L50.475 45.6147L51.0129 47.2601L51.5508 48.9055H55.7408C58.2807 48.9055 59.9541 48.8677 59.9903 48.8093C60.023 48.7563 58.4727 43.6188 56.5454 37.3924C54.6179 31.1662 52.987 25.9579 52.9211 25.8187L52.8012 25.5656L46.4111 25.5395C41.3731 25.519 40.0004 25.5404 39.9242 25.6408ZM61.9678 37.2065V48.9055H66.6257H71.2836V45.6653C71.2836 43.8831 71.304 42.425 71.329 42.425C71.354 42.425 72.5729 43.6251 74.0377 45.092C76.4833 47.5411 76.7629 47.7889 77.4603 48.1252C77.878 48.3266 78.4931 48.5726 78.8273 48.6719C79.3894 48.839 80.185 48.8547 89.4531 48.8814C99.2273 48.9096 99.4912 48.9053 100.288 48.7053C100.737 48.5925 101.387 48.3617 101.732 48.1925C102.078 48.0233 102.642 47.6734 102.986 47.415C103.329 47.1566 103.813 46.6914 104.06 46.3812C104.307 46.071 104.661 45.5191 104.848 45.1546C105.034 44.7902 105.293 44.1523 105.423 43.737C105.62 43.1045 105.658 42.7684 105.654 41.6656C105.652 40.7279 105.599 40.1599 105.47 39.6911C105.371 39.3291 105.158 38.7595 104.997 38.4253C104.836 38.0912 104.501 37.5491 104.252 37.2207C104.003 36.8923 103.148 35.9178 102.351 35.0552C101.554 34.1926 100.887 33.4246 100.869 33.3487C100.841 33.2332 101.794 33.2106 106.666 33.2106H112.496V29.3627V25.5149H104.97C100.159 25.5149 97.2287 25.5533 96.8445 25.6214C96.514 25.6799 95.9475 25.8223 95.5855 25.9378C95.2235 26.0533 94.5641 26.3347 94.1201 26.5632C93.6298 26.8154 93.0431 27.233 92.6255 27.627C92.2474 27.9837 91.7365 28.5999 91.4901 28.9963C91.2438 29.3928 90.9292 30.0589 90.7909 30.4766C90.6527 30.8943 90.5086 31.5351 90.4707 31.9007C90.4308 32.2859 90.4529 32.9033 90.5234 33.3689C90.5902 33.8109 90.777 34.5344 90.9383 34.9768C91.0996 35.4191 91.4096 36.0798 91.6274 36.445C91.8452 36.8102 92.6084 37.7393 93.3235 38.5096C94.0385 39.28 94.7088 40.0159 94.813 40.145C94.9172 40.274 94.9715 40.4297 94.9336 40.491C94.8847 40.57 93.0791 40.6024 88.7193 40.6022C83.0713 40.6021 82.5452 40.5877 82.2197 40.425C82.025 40.3277 81.8519 40.174 81.8351 40.0834C81.8145 39.9733 82.0929 39.727 82.6766 39.3386C83.1563 39.0194 83.7922 38.5205 84.0898 38.23C84.3874 37.9395 84.8178 37.4125 85.0464 37.0589C85.2749 36.7054 85.5805 36.048 85.7256 35.598C85.9276 34.9713 86.0015 34.4931 86.0414 33.5531C86.0811 32.6182 86.0525 32.1361 85.9208 31.5279C85.8258 31.0889 85.5649 30.3546 85.3409 29.8961C85.074 29.3495 84.7057 28.8162 84.2714 28.347C83.9071 27.9535 83.3234 27.4277 82.974 27.1785C82.6248 26.9292 81.9962 26.5669 81.5773 26.3734C81.1584 26.1798 80.4366 25.9207 79.9733 25.7975C79.141 25.5762 79.0301 25.5733 70.5495 25.5405L61.9678 25.5073V37.2065ZM76.9208 32.3942C77.1532 32.4997 77.4243 32.7096 77.5233 32.8607C77.636 33.0327 77.7052 33.3357 77.7084 33.6716C77.712 34.0601 77.6557 34.2865 77.5038 34.4939C77.3884 34.6513 77.1378 34.8597 76.9468 34.957C76.643 35.1121 76.2745 35.1341 73.9922 35.1342L71.3848 35.1345V33.6662V32.198L73.9416 32.2002C76.2316 32.2022 76.5424 32.2225 76.9208 32.3942ZM47.5873 35.9418C48.0919 37.5832 48.4825 38.9843 48.4552 39.0555C48.4176 39.1536 47.9768 39.1848 46.6272 39.1848C45.1318 39.1848 44.8395 39.1604 44.79 39.0313C44.7576 38.9469 45.1064 37.6596 45.5653 36.1707C46.0241 34.6818 46.4458 33.3042 46.5024 33.1093C46.5589 32.9144 46.6196 32.8005 46.6374 32.8561C46.6551 32.9118 47.0826 34.3004 47.5873 35.9418Z" stroke="#FFE81F"/>
</svg>
