<svg width="24" height="24" viewBox="0 0 24 24" fill="none" xmlns="http://www.w3.org/2000/svg">
<path fill-rule="evenodd" clip-rule="evenodd" d="M9.92057 5.40127C9.24829 5.61099 8.264 6.11413 7.73343 6.5187C7.20257 6.92356 6.47857 7.72356 6.12457 8.2967L5.48057 9.3387L6.16886 9.86584C6.54743 10.1556 8.14286 11.0316 9.71429 11.8124C11.2857 12.5933 13.8166 13.6553 15.3386 14.173C16.8606 14.6904 18.1811 15.0381 18.2734 14.9458C18.366 14.8536 18.5863 14.0844 18.7631 13.2367C19.0314 11.9521 19.0043 11.4184 18.5997 10.031C18.2446 8.81327 17.7797 8.03156 16.8691 7.12127C16.0083 6.26041 15.1594 5.73813 14.1174 5.4287C13.2886 5.1827 12.2803 4.98984 11.8766 5.00041C11.4731 5.01099 10.5929 5.19127 9.92057 5.40127ZM1.35714 6.72613C1.16086 6.92927 1 7.31699 1 7.58784C1 7.8587 1.33171 8.4747 1.73743 8.95641C2.14286 9.43841 3.53914 10.5413 4.84057 11.407C6.14171 12.2727 8.29743 13.4924 9.63114 14.1176C10.9649 14.7424 13.3934 15.7007 15.028 16.2467C16.6626 16.7927 18.8471 17.3256 19.8826 17.4307C21.1143 17.5561 21.9783 17.5078 22.3826 17.2916C22.722 17.1098 23 16.7338 23 16.4558C23 16.1778 22.582 15.559 22.0714 15.0804C21.5609 14.6021 20.8249 13.9981 20.4363 13.7387C20.048 13.4793 19.63 13.267 19.5077 13.267C19.3857 13.267 19.2857 13.5127 19.2857 13.813C19.2857 14.1133 19.6877 14.6973 20.1789 15.1104C20.67 15.5238 21.0131 15.9207 20.9414 15.9921C20.8697 16.0638 20.0714 15.9858 19.1677 15.8187C18.2637 15.6518 16.5383 15.191 15.3334 14.795C14.1286 14.399 11.6 13.3167 9.71429 12.3896C7.82857 11.4627 5.54829 10.1558 4.64714 9.48556C3.74571 8.81527 3.00657 8.17299 3.00429 8.05813C3.002 7.94327 3.55143 7.92499 4.22543 8.01727C5.14829 8.14384 5.54371 8.07299 5.82771 7.73099C6.15343 7.3387 6.09343 7.23356 5.38829 6.96184C4.93886 6.7887 3.92857 6.58184 3.14286 6.50184C2.182 6.40441 1.59743 6.47784 1.35714 6.72613ZM5.168 13.1956C5.26629 13.6278 5.60171 14.5278 5.91314 15.1958C6.22486 15.8638 6.95057 16.8004 7.52571 17.2773C8.10086 17.7538 9.27857 18.3513 10.1429 18.605C11.4377 18.9853 11.9854 19.0098 13.2543 18.7447C14.1011 18.5678 15.1089 18.217 15.4931 17.9653C15.8777 17.7133 16.1183 17.4327 16.0274 17.3421C15.9369 17.2513 14.5623 16.6864 12.9731 16.087C11.384 15.4873 8.98971 14.4147 7.65257 13.7033C6.31543 12.9918 5.16886 12.4098 5.10514 12.4098C5.04143 12.4098 5.06943 12.7633 5.168 13.1956Z" fill="#FFFFFF"/>
</svg>
