<svg width="24" height="24" viewBox="0 0 24 24" fill="none" xmlns="http://www.w3.org/2000/svg">
<path fill-rule="evenodd" clip-rule="evenodd" d="M4.3412 1.37981C4.03381 1.72183 4 2.73667 4 11.6269C4 20.9224 4.02185 21.5141 4.37707 21.8378C4.71189 22.1431 5.51634 22.1815 11.5609 22.1815C17.8932 22.1815 18.3913 22.1551 18.7088 21.8017C19.0162 21.4597 19.05 20.4448 19.05 11.5546C19.05 2.25905 19.0281 1.66742 18.6729 1.34368C18.3381 1.03842 17.5337 1 11.4891 1C5.15679 1 4.6587 1.02637 4.3412 1.37981ZM15.8196 5.18874L14.4216 6.60769L13.9085 6.09103C13.5165 5.69606 13.4524 5.51685 13.6369 5.33099C13.8165 5.15012 13.9501 5.14783 14.1583 5.32165C14.3781 5.50543 14.6756 5.31334 15.5452 4.42642C16.4206 3.53368 16.7115 3.34678 16.935 3.53347C17.1642 3.72494 16.9533 4.03788 15.8196 5.18874ZM12.6589 5.67239C12.6589 5.93715 12.1319 5.98388 9.15411 5.98388C6.17627 5.98388 5.64932 5.93715 5.64932 5.67239C5.64932 5.40762 6.17627 5.36089 9.15411 5.36089C12.1319 5.36089 12.6589 5.40762 12.6589 5.67239ZM17.0908 8.05946C17.1605 8.17305 16.5981 8.88387 15.8411 9.63893L14.4645 11.012L13.9299 10.4735C13.5215 10.0621 13.4524 9.87774 13.6369 9.69188C13.8167 9.5108 13.9501 9.50852 14.1585 9.68295C14.3785 9.86674 14.6558 9.69521 15.4481 8.88491C16.0033 8.31737 16.5715 7.85283 16.7107 7.85283C16.85 7.85283 17.0211 7.94587 17.0908 8.05946ZM12.6589 10.0333C12.6589 10.298 12.1319 10.3448 9.15411 10.3448C6.17627 10.3448 5.64932 10.298 5.64932 10.0333C5.64932 9.76851 6.17627 9.72179 9.15411 9.72179C12.1319 9.72179 12.6589 9.76851 12.6589 10.0333ZM17.0692 12.385C17.1271 12.4793 16.548 13.1827 15.7823 13.9479L14.3901 15.3394L13.8984 14.8122C13.5291 14.4162 13.4654 14.2256 13.6425 14.0472C13.8178 13.8707 13.9503 13.8698 14.1585 14.0438C14.3785 14.2276 14.6558 14.0561 15.4481 13.2458C16.0033 12.6783 16.5715 12.2137 16.7107 12.2137C16.85 12.2137 17.0114 12.2908 17.0692 12.385ZM12.6589 14.3653C12.6589 14.5856 11.9336 14.6805 9.36605 14.7964C7.5551 14.8782 5.97794 14.8857 5.86125 14.813C5.74477 14.7406 5.64932 14.5466 5.64932 14.3819C5.64932 14.1331 6.23998 14.0827 9.15411 14.0827C11.9728 14.0827 12.6589 14.1379 12.6589 14.3653ZM17.1034 16.8016C17.1811 16.9283 16.6315 17.6293 15.8598 18.3875L14.4773 19.7464L13.9363 19.2017C13.5229 18.7854 13.4524 18.5995 13.6369 18.4137C13.8167 18.2326 13.9501 18.2303 14.1585 18.4047C14.3785 18.5885 14.6558 18.417 15.4481 17.6067C16.0033 17.0392 16.5715 16.5746 16.7107 16.5746C16.85 16.5746 17.0267 16.6768 17.1034 16.8016ZM12.6589 18.7551C12.6589 19.0198 12.1319 19.0666 9.15411 19.0666C6.17627 19.0666 5.64932 19.0198 5.64932 18.7551C5.64932 18.4903 6.17627 18.4436 9.15411 18.4436C12.1319 18.4436 12.6589 18.4903 12.6589 18.7551Z" fill="#FFFFFF"/>
</svg>
