<svg width="24" height="24" viewBox="0 0 24 24" fill="none" xmlns="http://www.w3.org/2000/svg">
<path fill-rule="evenodd" clip-rule="evenodd" d="M10.3038 4.28319C6.31151 5.98159 4.92246 6.71712 4.77181 7.21321C4.66128 7.57747 4.35041 8.12641 4.08126 8.43272C3.81212 8.73903 3.34008 8.98994 3.03239 8.98994C2.68171 8.98994 2.19661 9.55384 1.73125 10.5024C1.17959 11.6267 0.99198 12.5459 1.00026 14.0845C1.00822 15.5457 1.23087 16.649 1.75833 17.8379C2.19661 18.8263 3.0859 20.0327 3.91181 20.7593C4.68549 21.4401 5.98089 22.2228 6.79088 22.4985C7.60055 22.7742 9.03514 23 9.9789 23C11.0217 23 12.3111 22.7348 13.2666 22.324C14.2699 21.8926 14.8385 21.4519 14.8385 21.1058C14.8385 20.8077 15.1704 20.2521 15.5755 19.8713C15.981 19.4905 16.5426 19.1791 16.8232 19.1791C17.1038 19.1791 17.5236 18.7492 17.7561 18.2238C18.0663 17.523 18.3954 17.2686 18.9907 17.2686C19.5286 17.2686 20.2647 16.7974 21.1751 15.8702C22.2032 14.8229 22.4966 14.3109 22.344 13.8301C22.2319 13.477 21.9105 13.1 21.6296 12.9924C21.3486 12.8844 20.7941 13.0092 20.3972 13.2694C19.7182 13.7139 19.7398 13.5932 20.7607 11.2386C21.3576 9.86143 21.8458 8.52792 21.8458 8.27511C21.8458 8.02197 21.5885 7.58224 21.2738 7.29759C20.7358 6.81074 20.4836 7.00114 17.0111 10.5119C14.7595 12.7886 13.2405 14.5882 13.1156 15.1273C13.0032 15.6135 12.6318 16.2905 12.2904 16.6318C11.9489 16.9731 11.288 17.3482 10.8214 17.4651C10.3551 17.5822 9.46928 17.5501 8.85327 17.3937C8.22866 17.2352 7.44065 16.7159 7.07276 16.2201C6.66857 15.6759 6.41216 14.8471 6.41216 14.0842C6.41216 13.1455 6.63799 12.602 7.32567 11.8846C7.82828 11.3602 8.62075 10.8475 9.08706 10.7453C9.597 10.6333 11.3797 9.1103 13.5628 6.92186C17.1455 3.33019 17.1834 3.2767 16.6021 2.63478C16.2785 2.27752 15.9285 1.99159 15.8243 2.00019C15.7202 2.00847 13.236 3.03566 10.3038 4.28319ZM13.4052 8.98994L11.5113 10.9033L12.3076 11.6993L13.1039 12.4953L14.9978 10.582L16.8917 8.66866L16.0954 7.87263L15.2991 7.07661L13.4052 8.98994ZM8.67745 12.51C8.06048 12.9952 7.83115 13.4662 7.83115 14.2488C7.83115 14.9968 8.04551 15.4721 8.53921 15.8176C8.92844 16.0902 9.54827 16.3134 9.91679 16.3134C10.2853 16.3134 10.8985 15.9816 11.2794 15.5766C11.6603 15.1712 11.9719 14.4768 11.9719 14.0339C11.9719 13.5907 11.7209 13.0076 11.4145 12.7386C11.108 12.4695 10.557 12.1581 10.1904 12.047C9.75626 11.9152 9.22848 12.0766 8.67745 12.51Z" fill="#FFFFFF"/>
</svg>
