<svg width="24" height="24" viewBox="0 0 24 24" fill="none" xmlns="http://www.w3.org/2000/svg">
<path fill-rule="evenodd" clip-rule="evenodd" d="M13.3476 3.58389C13.0569 3.90497 12.2334 4.39135 11.5178 4.66487L10.2162 5.16195V7.20259V9.24324H16.3108H22.4054V7.17049V5.09773L20.8068 4.63305C19.9277 4.37738 18.9704 3.90557 18.6797 3.58419C18.2477 3.10673 17.7607 3 16.0135 3C14.2666 3 13.7793 3.10673 13.3476 3.58389ZM3.30405 6.47689C2.69103 6.89816 2.18919 7.42527 2.18919 7.64824C2.18919 7.87151 1.92162 8.05405 1.59459 8.05405C1.26757 8.05405 1 8.18784 1 8.35135C1 8.51486 1.26757 8.64865 1.59459 8.64865C1.92162 8.64865 2.18919 8.78243 2.18919 8.94595C2.18919 9.10946 1.92162 9.24324 1.59459 9.24324C1.26757 9.24324 1 9.37703 1 9.54054C1 9.71535 2.00932 9.83397 3.4527 9.82832C5.01946 9.82238 6.0933 9.67641 6.42568 9.424C6.81305 9.12997 6.94595 8.60049 6.94595 7.35243V5.67568L5.68243 5.69351C4.83365 5.70541 4.05324 5.96257 3.30405 6.47689ZM7.54054 7.60811C7.54054 8.599 7.65619 8.94595 7.98649 8.94595C8.31678 8.94595 8.43243 8.599 8.43243 7.60811C8.43243 6.61722 8.31678 6.27027 7.98649 6.27027C7.65619 6.27027 7.54054 6.61722 7.54054 7.60811ZM9.02703 7.60811C9.02703 8.34392 9.16081 8.94595 9.32432 8.94595C9.48784 8.94595 9.62162 8.34392 9.62162 7.60811C9.62162 6.8723 9.48784 6.27027 9.32432 6.27027C9.16081 6.27027 9.02703 6.8723 9.02703 7.60811ZM4.13024 7.2677C3.78359 7.5213 3.651 7.85784 3.77259 8.17505C3.88705 8.47354 3.84632 8.60524 3.67241 8.49792C3.51068 8.39803 3.37838 8.15038 3.37838 7.94732C3.37838 7.74427 3.53892 7.41784 3.73514 7.22162C3.93135 7.02541 4.22449 6.86486 4.38651 6.86486C4.54854 6.86486 4.43319 7.04622 4.13024 7.2677ZM10.5239 10.4128C10.3548 10.7291 10.2162 11.3029 10.2162 11.6879C10.2162 12.0729 9.94865 12.9125 9.62162 13.5541C9.29459 14.1956 9.02703 14.9582 9.02703 15.2489C9.02703 15.5397 8.75946 16.4812 8.43273 17.3413C8.1057 18.2017 7.83814 19.0056 7.83814 19.1284C7.83784 19.2512 8.30132 19.3514 8.86797 19.3514C9.60646 19.3514 9.99146 19.1765 10.2287 18.7336C10.4222 18.3718 10.7344 18.1871 10.9824 18.2876C11.2151 18.3822 11.5823 18.5314 11.7984 18.6197C12.0285 18.7134 12.3365 18.4609 12.5417 18.0111C12.7343 17.5881 12.8919 17.1362 12.8919 17.0066C12.8919 16.8772 12.5729 16.6257 12.1828 16.4479C11.5193 16.1456 11.4904 16.0335 11.7345 14.6909C11.9275 13.6281 12.264 13.0064 13.0337 12.2905C13.9494 11.4388 14.2699 11.3243 15.7403 11.3243C16.9702 11.3243 17.6439 11.492 18.3054 11.9632C19.1449 12.5611 19.1931 12.6984 19.0572 14.1115C18.966 15.0622 19.0528 15.8435 19.2924 16.2226C19.5014 16.5535 19.7642 17.3931 19.876 18.0878C20.0707 19.2987 20.1234 19.3514 21.1342 19.3514H22.189L21.9618 17.9392C21.837 17.1624 21.7186 15.4568 21.6984 14.1486C21.6785 12.8405 21.7731 11.3356 21.9086 10.8041L22.1554 9.83784H16.4936C11.2003 9.83784 10.8117 9.8753 10.5239 10.4128ZM12.2408 11.25C12.1855 11.536 11.9435 11.7703 11.7027 11.7703C11.4619 11.7703 11.2199 11.536 11.1646 11.25C11.0944 10.8849 11.255 10.7297 11.7027 10.7297C12.1504 10.7297 12.311 10.8849 12.2408 11.25ZM20.8624 11.25C20.8071 11.536 20.5651 11.7703 20.3243 11.7703C20.0835 11.7703 19.8415 11.536 19.7862 11.25C19.7161 10.8849 19.8766 10.7297 20.3243 10.7297C20.7721 10.7297 20.9326 10.8849 20.8624 11.25ZM9.02287 12.0726C8.81684 12.3206 8.00551 12.9404 7.21946 13.4497C6.43341 13.959 5.71276 14.5776 5.61822 14.8244C5.52338 15.0712 5.65805 15.5965 5.917 15.9919C6.28149 16.5478 6.60257 16.6899 7.336 16.6189C8.18122 16.5368 8.29449 16.4144 8.3813 15.4865C8.43511 14.9142 8.65005 14.2453 8.85965 14C9.06895 13.7547 9.38587 13.1194 9.56395 12.5878C9.74232 12.0563 9.77741 11.6216 9.64243 11.6216C9.50746 11.6216 9.22859 11.8247 9.02287 12.0726ZM17.0264 12.8851C16.8361 13.2529 16.4675 13.7978 16.2074 14.0957C15.8637 14.4891 15.729 15.2867 15.715 17.0084L15.6957 19.3796L16.7466 19.2913C17.7854 19.2036 17.7994 19.184 17.9825 17.5676C18.0845 16.6682 18.2638 15.598 18.3806 15.1892C18.4974 14.7804 18.6678 14.124 18.7591 13.7306C18.8726 13.2407 18.7528 12.8893 18.3785 12.6158C18.0782 12.3961 17.7289 12.2162 17.6023 12.2162C17.4759 12.2162 17.2167 12.5174 17.0264 12.8851ZM7.48792 15.2882C7.54351 15.5748 7.39427 15.7838 7.13384 15.7838C6.88619 15.7838 6.60108 15.65 6.5 15.4865C6.39892 15.323 6.40338 15.0483 6.50981 14.8761C6.61595 14.704 6.85824 14.6148 7.04762 14.6778C7.237 14.7409 7.435 15.0156 7.48792 15.2882ZM10.8108 15.1892C10.8108 15.5162 10.6182 15.7838 10.3824 15.7838C10.1466 15.7838 9.87135 15.65 9.77027 15.4865C9.66919 15.323 9.66919 15.0554 9.77027 14.8919C9.87135 14.7284 10.1466 14.5946 10.3824 14.5946C10.6182 14.5946 10.8108 14.8622 10.8108 15.1892ZM17.5 15.21C17.5 15.4392 17.2657 15.672 16.9797 15.7273C16.6833 15.7844 16.4595 15.6473 16.4595 15.4092C16.4595 15.1791 16.5513 14.899 16.664 14.7866C16.7764 14.6743 17.0104 14.6297 17.1843 14.6876C17.3579 14.7453 17.5 14.9805 17.5 15.21ZM20.7863 14.9178C20.896 15.0955 20.8372 15.3899 20.6552 15.5718C20.4123 15.8147 20.2363 15.8147 19.9934 15.5718C19.8115 15.3899 19.7526 15.0955 19.8623 14.9178C19.9723 14.74 20.1801 14.5946 20.3243 14.5946C20.4685 14.5946 20.6763 14.74 20.7863 14.9178ZM13.0477 18.1461C12.7569 18.7915 12.5985 19.5274 12.696 19.7812C12.7935 20.0354 13.0718 20.2432 13.3146 20.2432C13.5572 20.2432 14.0288 19.6266 14.362 18.873C14.6953 18.1196 14.8945 17.3838 14.8044 17.2379C14.7143 17.0922 14.4013 16.973 14.1087 16.973C13.7769 16.973 13.3777 17.4145 13.0477 18.1461ZM7.27327 19.8865C7.09311 19.9465 6.94595 20.3188 6.94595 20.7139C6.94595 21.3872 7.0497 21.4324 8.5903 21.4324C9.80922 21.4324 10.281 21.3117 10.4136 20.9666C10.512 20.7103 10.4487 20.3568 10.273 20.1811C10.0973 20.0054 9.42422 19.8428 8.777 19.8196C8.13008 19.7964 7.45343 19.8264 7.27327 19.8865ZM15.9392 19.8874C15.1338 19.9676 14.973 20.1068 14.973 20.7228C14.973 21.4348 15.0357 21.4589 16.6824 21.373C18.1416 21.2969 18.3919 21.1999 18.3919 20.7106C18.3919 20.3434 18.1246 20.0753 17.6486 19.9644C17.2399 19.8692 16.4708 19.8345 15.9392 19.8874ZM19.8385 20.1766C19.6292 20.3862 19.5332 20.7546 19.6254 20.9951C19.7446 21.3052 20.2598 21.4324 21.3967 21.4324C22.9087 21.4324 23 21.3902 23 20.6892C23 20.2804 22.8329 19.9355 22.6284 19.9231C22.4241 19.9106 21.7983 19.8767 21.2382 19.8481C20.6781 19.8193 20.0481 19.9674 19.8385 20.1766Z" fill="#FFFFFF"/>
</svg>
